<svg xmlns="http://www.w3.org/2000/svg" viewBox="0 0 128 128">
  <path fill="#F90" d="M36.89 78.85c-1.6 0-2.95-.57-4.06-1.7-1.1-1.12-1.65-2.46-1.65-4.02V55.56c0-1.55.55-2.87 1.65-3.98 1.1-1.1 2.46-1.65 4.06-1.65 1.57 0 2.9.55 4 1.65 1.1 1.1 1.65 2.43 1.65 3.98v17.57c0 1.56-.55 2.9-1.65 4.02-1.1 1.13-2.43 1.7-4 1.7z"/>
  <path fill="#F90" d="M64 78.85c-1.56 0-2.9-.57-4-1.7-1.1-1.12-1.66-2.46-1.66-4.02V36.88c0-1.56.56-2.9 1.66-4 1.1-1.1 2.44-1.66 4-1.66 1.6 0 2.94.56 4.04 1.66 1.1 1.1 1.65 2.44 1.65 4v36.25c0 1.56-.55 2.9-1.65 4.02-1.1 1.13-2.44 1.7-4.04 1.7z"/>
  <path fill="#F90" d="M91.11 78.85c-1.57 0-2.9-.57-4-1.7-1.1-1.12-1.66-2.46-1.66-4.02V45.22c0-1.56.56-2.9 1.66-4 1.1-1.1 2.43-1.66 4-1.66 1.6 0 2.95.56 4.05 1.66 1.1 1.1 1.65 2.44 1.65 4v27.91c0 1.56-.55 2.9-1.65 4.02-1.1 1.13-2.45 1.7-4.05 1.7z"/>
  <path fill="#232F3E" d="M16 85c0-2 6.8-4 12-5.6 14.5-4.3 32.7-6.7 36-6.7s21.5 2.4 36 6.7c5.2 1.6 12 3.6 12 5.6 0 2.8-5.4 4.2-12 5.8-14.5 3.8-33 5.6-36 5.6s-21.5-1.8-36-5.6c-6.6-1.6-12-3-12-5.8z"/>
</svg>
