<svg xmlns="http://www.w3.org/2000/svg" viewBox="0 0 128 128">
  <path fill="#23a3dd" d="M124.8 52.1c-2-1.4-6.6-2-10.3-1.3-.5-3.5-2.5-6.5-6.2-9.2l-2.1-1.4-1.4 2.1c-2.6 4-3.3 10.7-1 15.4-1.5.8-4.5 2-8.4 1.9H1.7l-.2 1.2c-.8 4.7-.7 19.5 8.8 30.8 7.4 8.7 18.4 13 32.7 13 31.1 0 54.1-14.3 64.9-40.3 4.2.1 13.3.3 17.9-8.9.1-.3 1.2-2.6 1.5-3.4l-2.5-1.9z"/>
  <path fill="#23a3dd" d="M29.3 52.2H18.2v11.1h11.1V52.2zm14.1 0H32.3v11.1h11.1V52.2zm14.2 0H46.5v11.1h11.1V52.2zm14.1 0H60.6v11.1h11.1V52.2zm-56.5-14H4.1v11.1h11.1V38.2zm14.1 0H18.2v11.1h11.1V38.2zm14.2 0H32.3v11.1h11.1V38.2zm14.1 0H46.5v11.1h11.1V38.2zm14.1 0H60.6v11.1h11.1V38.2zm14.1 0H74.7v11.1h11.1V38.2zM60.6 24.2H49.5v11.1h11.1V24.2zm14.1 0H63.6v11.1h11.1V24.2zm14.1 0H77.7v11.1h11.1V24.2z"/>
</svg>
