<svg xmlns="http://www.w3.org/2000/svg" viewBox="0 0 128 128">
  <path fill="#336791" d="M93.809 92.112c.785-6.533.55-7.492 5.416-6.433l1.235.108c3.742.17 8.637-.602 11.513-1.938 6.191-2.873 9.861-7.668 3.758-6.409-13.924 2.873-14.881-1.842-14.881-1.842 14.703-21.815 20.849-49.508 15.543-56.287-14.47-18.489-39.517-9.746-39.936-9.52l-.134.025c-2.751-.571-5.83-.912-9.289-.968-6.292-.104-11.066 1.652-14.702 4.402 0 0-44.757-18.449-42.676 23.209.443 8.861 12.702 67.027 27.332 49.458 5.352-6.44 10.519-11.884 10.519-11.884 2.567 1.704 5.633 2.577 8.852 2.255l.248-.209c-.078.796-.044 1.575.099 2.497-3.757 4.199-2.653 4.936-10.166 6.482-7.602 1.566-3.136 4.355-.22 5.084 3.535.884 11.712 2.136 17.238-5.598l-.22.882c1.474 1.18 1.375 8.467 1.583 13.679.209 5.212.558 10.079 1.612 12.948 1.053 2.868 2.317 10.256 12.191 8.14 8.252-1.764 14.561-4.309 15.116-27.855"/>
  <path fill="#fff" d="M85.545 94.973c-.729 26.153-6.433 28.27-13.552 30.205-8.98 2.421-9.949-2.866-10.925-8.067-.957-5.103-1.08-11.001-1.08-11.001s.012-.079.035-.222c-.487.116-.98.195-1.475.233.026.214.044.336.044.336s.126 6.118 1.11 11.401c.988 5.294 1.962 12.078 12.27 9.449 9.133-2.369 14.049-5.095 14.748-31.965"/>
  <path fill="#fff" d="M75.017 34.827c-.114 3.847-.655 6.879-1.393 9.011l3.49 1.788c1.052-2.22 1.81-5.659 2.005-10.099"/>
  <path fill="#ccc" d="M61.83 34.357c-.021.508-.043.996-.059 1.427-.283 7.494-.512 12.771 3.337 17.21"/>
  <path fill="#fff" d="M106.781 41.602c-.682-7.111-5.174-14.301-11.734-15.951-9.399-2.351-18.698-.48-25.003 8.02 6.012.765 10.196 3.577 12.627 8.337 2.424 4.743 3.03 9.978 3.232 14.479.239 5.352-1.167 10.637-3.734 14.624l.008.007c2.567-1.407 5.405-2.31 8.16-2.512 5.032-.363 9.668 1.08 13.213 3.988 2.43-3.437 3.828-7.897 3.624-15.337-.034-1.18-.173-2.518-.393-5.655z"/>
  <path fill="#336791" d="M91.214 67.443c-4.701-.25-9.738 2.33-11.738 5.515 2.567-1.407 5.405-2.31 8.16-2.512 5.032-.363 9.668 1.08 13.213 3.988a20.6 20.6 0 0 0 .759-1.244c-2.298-3.117-5.797-5.535-10.394-5.747z"/>
  <path fill="#fff" d="M55.854 40.415a15.527 15.527 0 0 1 1.011-2.015c-3.872-2.08-9.021-3.218-15.548-2.79-8.574.563-14.298 5.565-16.872 11.218-2.573 5.652-2.264 11.817.315 16.705 3.252 6.118 8.685 9.378 11.885 10.993.263.131.52.249.774.361-2.163-3.935-3.356-9.126-2.976-15.591.467-7.889 3.625-14.032 8.74-17.527 4.174-2.837 8.818-2.886 12.671-1.354z"/>
  <path fill="#ccc" d="M37.499 76.178c-2.877-1.332-10.056-5.308-13.352-12.449a21.86 21.86 0 0 0-.215 2.703c-.009.286-.009.576 0 .872.443 12.049 7.023 16.049 12.42 17.26 5.397 1.211 8.278.247 8.278.247-3.434-1.998-5.89-4.884-7.131-8.633z"/>
</svg>
