<svg xmlns="http://www.w3.org/2000/svg" viewBox="0 0 128 128">
  <path fill="#38BDF8" d="M64 16c-17.1 0-27.8 8.5-32 25.6 6.4-8.5 13.9-11.7 22.4-9.6 4.9 1.2 8.3 4.7 12.1 8.5 6.2 6.3 13.4 13.6 29.1 13.6 17.1 0 27.8-8.5 32-25.6-6.4 8.5-13.9 11.7-22.4 9.6-4.9-1.2-8.3-4.7-12.1-8.5C87 23.3 79.8 16 64 16zm-32 38.4c-17.1 0-27.8 8.5-32 25.6C6.4 71.5 13.9 68.3 22.4 70.4c4.9 1.2 8.3 4.7 12.1 8.5 6.2 6.3 13.4 13.6 29.1 13.6 17.1 0 27.8-8.5 32-25.6-6.4 8.5-13.9 11.7-22.4 9.6-4.9-1.2-8.3-4.7-12.1-8.5C55 61.7 47.8 54.4 32 54.4z"/>
</svg>
