<svg xmlns="http://www.w3.org/2000/svg" width="600" height="380" viewBox="0 0 600 380">
  <defs>
    <linearGradient id="ffOuter" x1="0%" y1="0%" x2="100%" y2="100%">
      <stop offset="0%" stop-color="#0a140a"/>
      <stop offset="100%" stop-color="#050d05"/>
    </linearGradient>
    <linearGradient id="ffContent" x1="0%" y1="0%" x2="100%" y2="100%">
      <stop offset="0%" stop-color="#0d1a0d"/>
      <stop offset="100%" stop-color="#0a150a"/>
    </linearGradient>
    <linearGradient id="ffStat1" x1="0%" y1="0%" x2="100%" y2="100%">
      <stop offset="0%" stop-color="#052e16"/>
      <stop offset="100%" stop-color="#064e3b"/>
    </linearGradient>
    <linearGradient id="ffBar1" x1="0%" y1="100%" x2="0%" y2="0%">
      <stop offset="0%" stop-color="#059669"/>
      <stop offset="100%" stop-color="#10b981"/>
    </linearGradient>
    <linearGradient id="ffBar2" x1="0%" y1="100%" x2="0%" y2="0%">
      <stop offset="0%" stop-color="#047857"/>
      <stop offset="100%" stop-color="#6ee7b7"/>
    </linearGradient>
    <linearGradient id="ffPill" x1="0%" y1="0%" x2="100%" y2="0%">
      <stop offset="0%" stop-color="#7c3aed"/>
      <stop offset="100%" stop-color="#06b6d4"/>
    </linearGradient>
  </defs>

  <!-- Outer card -->
  <rect width="600" height="380" rx="12" fill="url(#ffOuter)" stroke="rgba(16,185,129,0.25)" stroke-width="1"/>

  <!-- Browser chrome -->
  <rect x="10" y="10" width="580" height="28" rx="6" fill="#030808"/>
  <rect x="10" y="28" width="580" height="10" fill="#030808"/>
  <circle cx="30" cy="24" r="5" fill="#ff5f57"/>
  <circle cx="50" cy="24" r="5" fill="#ffbd2e"/>
  <circle cx="70" cy="24" r="5" fill="#28c840"/>
  <rect x="90" y="17" width="240" height="14" rx="7" fill="rgba(255,255,255,0.06)"/>
  <text x="210" y="27" font-family="system-ui, sans-serif" font-size="8.5" fill="#8892b0" text-anchor="middle">fuelflow-app · localhost:3000</text>

  <!-- Content area -->
  <rect x="10" y="38" width="580" height="264" fill="url(#ffContent)"/>

  <!-- App header bar -->
  <rect x="10" y="38" width="580" height="28" fill="#061a0a"/>
  <text x="30" y="57" font-family="system-ui, sans-serif" font-size="13" font-weight="700" fill="#10b981">⛽ FuelFlow</text>
  <text x="165" y="57" font-family="system-ui, sans-serif" font-size="9" fill="rgba(16,185,129,0.5)">Gas Station Management System</text>
  <!-- Date chip -->
  <rect x="490" y="44" width="90" height="16" rx="4" fill="rgba(16,185,129,0.12)" stroke="rgba(16,185,129,0.3)" stroke-width="1"/>
  <text x="535" y="55" font-family="system-ui, sans-serif" font-size="8" fill="rgba(52,211,153,0.7)" text-anchor="middle">May 15, 2026</text>

  <!-- Sub-nav -->
  <text x="30" y="84" font-family="system-ui, sans-serif" font-size="9" fill="#10b981" font-weight="600">Dashboard</text>
  <text x="100" y="84" font-family="system-ui, sans-serif" font-size="9" fill="rgba(136,146,176,0.5)">Inventory</text>
  <text x="160" y="84" font-family="system-ui, sans-serif" font-size="9" fill="rgba(136,146,176,0.5)">Sales</text>
  <text x="205" y="84" font-family="system-ui, sans-serif" font-size="9" fill="rgba(136,146,176,0.5)">Reports</text>
  <line x1="10" y1="88" x2="590" y2="88" stroke="rgba(16,185,129,0.12)" stroke-width="1"/>
  <line x1="16" y1="88" x2="85" y2="88" stroke="#10b981" stroke-width="2"/>

  <!-- Stat cards row -->
  <!-- Card 1: Fuel Level -->
  <rect x="16" y="96" width="178" height="72" rx="6" fill="url(#ffStat1)" stroke="rgba(16,185,129,0.3)" stroke-width="1"/>
  <text x="28" y="116" font-family="system-ui, sans-serif" font-size="9" fill="rgba(52,211,153,0.6)">⛽  FUEL LEVEL</text>
  <text x="28" y="142" font-family="system-ui, sans-serif" font-size="26" font-weight="800" fill="#10b981">78%</text>
  <!-- Progress bar -->
  <rect x="28" y="155" width="150" height="6" rx="3" fill="rgba(16,185,129,0.2)"/>
  <rect x="28" y="155" width="117" height="6" rx="3" fill="#10b981"/>

  <!-- Card 2: Sales -->
  <rect x="204" y="96" width="178" height="72" rx="6" fill="rgba(6,78,59,0.3)" stroke="rgba(52,211,153,0.3)" stroke-width="1"/>
  <text x="216" y="116" font-family="system-ui, sans-serif" font-size="9" fill="rgba(52,211,153,0.6)">&#x1F4B0;  TODAY'S SALES</text>
  <text x="216" y="142" font-family="system-ui, sans-serif" font-size="20" font-weight="800" fill="#34d399">৳42,000</text>
  <text x="216" y="157" font-family="system-ui, sans-serif" font-size="8" fill="rgba(52,211,153,0.45)">↑ 12% vs yesterday</text>

  <!-- Card 3: Orders -->
  <rect x="392" y="96" width="178" height="72" rx="6" fill="rgba(5,46,22,0.5)" stroke="rgba(16,185,129,0.3)" stroke-width="1"/>
  <text x="404" y="116" font-family="system-ui, sans-serif" font-size="9" fill="rgba(52,211,153,0.6)">&#x1F4CB;  ORDERS TODAY</text>
  <text x="404" y="142" font-family="system-ui, sans-serif" font-size="26" font-weight="800" fill="#10b981">24</text>
  <text x="404" y="157" font-family="system-ui, sans-serif" font-size="8" fill="rgba(52,211,153,0.45)">8 pending · 16 complete</text>

  <!-- Bar chart section -->
  <text x="20" y="186" font-family="system-ui, sans-serif" font-size="9" font-weight="600" fill="rgba(52,211,153,0.6)">WEEKLY FUEL SALES (Liters)</text>
  <!-- Chart area bg -->
  <rect x="16" y="190" width="270" height="100" rx="4" fill="rgba(0,0,0,0.3)"/>
  <!-- Y-axis labels -->
  <text x="20" y="202" font-family="system-ui, sans-serif" font-size="7" fill="rgba(136,146,176,0.4)">500</text>
  <text x="20" y="231" font-family="system-ui, sans-serif" font-size="7" fill="rgba(136,146,176,0.4)">250</text>
  <text x="20" y="260" font-family="system-ui, sans-serif" font-size="7" fill="rgba(136,146,176,0.4)">0</text>
  <!-- Baseline -->
  <line x1="38" y1="280" x2="280" y2="280" stroke="rgba(16,185,129,0.2)" stroke-width="1"/>
  <!-- Bars (Mon-Sun) -->
  <rect x="42" y="230" width="24" height="50" rx="2" fill="url(#ffBar1)" opacity="0.8"/>
  <text x="54" y="288" font-family="system-ui, sans-serif" font-size="7" fill="rgba(136,146,176,0.4)" text-anchor="middle">Mon</text>
  <rect x="76" y="218" width="24" height="62" rx="2" fill="url(#ffBar1)" opacity="0.9"/>
  <text x="88" y="288" font-family="system-ui, sans-serif" font-size="7" fill="rgba(136,146,176,0.4)" text-anchor="middle">Tue</text>
  <rect x="110" y="240" width="24" height="40" rx="2" fill="url(#ffBar2)" opacity="0.7"/>
  <text x="122" y="288" font-family="system-ui, sans-serif" font-size="7" fill="rgba(136,146,176,0.4)" text-anchor="middle">Wed</text>
  <rect x="144" y="210" width="24" height="70" rx="2" fill="url(#ffBar1)"/>
  <text x="156" y="288" font-family="system-ui, sans-serif" font-size="7" fill="rgba(136,146,176,0.4)" text-anchor="middle">Thu</text>
  <rect x="178" y="225" width="24" height="55" rx="2" fill="url(#ffBar2)" opacity="0.85"/>
  <text x="190" y="288" font-family="system-ui, sans-serif" font-size="7" fill="rgba(136,146,176,0.4)" text-anchor="middle">Fri</text>
  <rect x="212" y="198" width="24" height="82" rx="2" fill="url(#ffBar1)"/>
  <text x="224" y="288" font-family="system-ui, sans-serif" font-size="7" fill="rgba(136,146,176,0.4)" text-anchor="middle">Sat</text>
  <rect x="246" y="207" width="24" height="73" rx="2" fill="url(#ffBar2)" opacity="0.9"/>
  <text x="258" y="288" font-family="system-ui, sans-serif" font-size="7" fill="rgba(136,146,176,0.4)" text-anchor="middle">Sun</text>

  <!-- Data table on right -->
  <rect x="296" y="190" width="278" height="100" rx="4" fill="rgba(0,0,0,0.3)"/>
  <!-- Table header -->
  <rect x="296" y="190" width="278" height="18" rx="4" fill="rgba(16,185,129,0.1)"/>
  <text x="308" y="202" font-family="system-ui, sans-serif" font-size="8" font-weight="600" fill="rgba(52,211,153,0.7)">Date</text>
  <text x="358" y="202" font-family="system-ui, sans-serif" font-size="8" font-weight="600" fill="rgba(52,211,153,0.7)">Type</text>
  <text x="418" y="202" font-family="system-ui, sans-serif" font-size="8" font-weight="600" fill="rgba(52,211,153,0.7)">Liters</text>
  <text x="480" y="202" font-family="system-ui, sans-serif" font-size="8" font-weight="600" fill="rgba(52,211,153,0.7)">Amount</text>
  <!-- Row 1 -->
  <line x1="296" y1="208" x2="574" y2="208" stroke="rgba(16,185,129,0.1)" stroke-width="1"/>
  <text x="308" y="220" font-family="system-ui, sans-serif" font-size="8" fill="rgba(136,146,176,0.6)">May 15</text>
  <text x="358" y="220" font-family="system-ui, sans-serif" font-size="8" fill="rgba(16,185,129,0.8)">Octane</text>
  <text x="418" y="220" font-family="system-ui, sans-serif" font-size="8" fill="rgba(136,146,176,0.6)">120 L</text>
  <text x="480" y="220" font-family="system-ui, sans-serif" font-size="8" fill="rgba(52,211,153,0.7)">৳14,400</text>
  <!-- Row 2 -->
  <line x1="296" y1="226" x2="574" y2="226" stroke="rgba(16,185,129,0.1)" stroke-width="1"/>
  <text x="308" y="238" font-family="system-ui, sans-serif" font-size="8" fill="rgba(136,146,176,0.6)">May 15</text>
  <text x="358" y="238" font-family="system-ui, sans-serif" font-size="8" fill="rgba(251,191,36,0.7)">Diesel</text>
  <text x="418" y="238" font-family="system-ui, sans-serif" font-size="8" fill="rgba(136,146,176,0.6)">230 L</text>
  <text x="480" y="238" font-family="system-ui, sans-serif" font-size="8" fill="rgba(52,211,153,0.7)">৳21,850</text>
  <!-- Row 3 -->
  <line x1="296" y1="244" x2="574" y2="244" stroke="rgba(16,185,129,0.1)" stroke-width="1"/>
  <text x="308" y="256" font-family="system-ui, sans-serif" font-size="8" fill="rgba(136,146,176,0.6)">May 14</text>
  <text x="358" y="256" font-family="system-ui, sans-serif" font-size="8" fill="rgba(16,185,129,0.8)">Octane</text>
  <text x="418" y="256" font-family="system-ui, sans-serif" font-size="8" fill="rgba(136,146,176,0.6)">95 L</text>
  <text x="480" y="256" font-family="system-ui, sans-serif" font-size="8" fill="rgba(52,211,153,0.7)">৳11,400</text>
  <!-- Row 4 -->
  <line x1="296" y1="262" x2="574" y2="262" stroke="rgba(16,185,129,0.1)" stroke-width="1"/>
  <text x="308" y="274" font-family="system-ui, sans-serif" font-size="8" fill="rgba(136,146,176,0.6)">May 14</text>
  <text x="358" y="274" font-family="system-ui, sans-serif" font-size="8" fill="rgba(251,191,36,0.7)">Diesel</text>
  <text x="418" y="274" font-family="system-ui, sans-serif" font-size="8" fill="rgba(136,146,176,0.6)">180 L</text>
  <text x="480" y="274" font-family="system-ui, sans-serif" font-size="8" fill="rgba(52,211,153,0.7)">৳17,100</text>
  <line x1="296" y1="280" x2="574" y2="280" stroke="rgba(16,185,129,0.08)" stroke-width="1"/>
  <text x="308" y="288" font-family="system-ui, sans-serif" font-size="7.5" fill="rgba(136,146,176,0.3)">Showing 4 of 24 records today</text>

  <!-- Bottom label strip -->
  <rect x="0" y="308" width="600" height="72" rx="12" fill="rgba(0,0,0,0.35)"/>
  <rect x="0" y="308" width="600" height="4" fill="url(#ffPill)"/>
  <text x="20" y="335" font-family="system-ui, -apple-system, sans-serif" font-size="16" font-weight="700" fill="#f0f4ff">FuelFlow</text>
  <text x="20" y="353" font-family="system-ui, sans-serif" font-size="10" fill="#8892b0">Gas station inventory &amp; sales management system</text>
  <!-- Tech pills -->
  <rect x="430" y="318" width="46" height="18" rx="9" fill="rgba(251,191,36,0.12)" stroke="rgba(251,191,36,0.3)" stroke-width="1"/>
  <text x="453" y="330" font-family="system-ui, sans-serif" font-size="9" fill="#fbbf24" text-anchor="middle">HTML</text>
  <rect x="482" y="318" width="38" height="18" rx="9" fill="rgba(6,182,212,0.15)" stroke="rgba(6,182,212,0.35)" stroke-width="1"/>
  <text x="501" y="330" font-family="system-ui, sans-serif" font-size="9" fill="#67e8f9" text-anchor="middle">CSS</text>
  <rect x="526" y="318" width="54" height="18" rx="9" fill="rgba(124,58,237,0.2)" stroke="rgba(124,58,237,0.4)" stroke-width="1"/>
  <text x="553" y="330" font-family="system-ui, sans-serif" font-size="9" fill="#a78bfa" text-anchor="middle">JavaScript</text>
</svg>
