<svg xmlns="http://www.w3.org/2000/svg" viewBox="0 0 24 24" width="24" height="24" fill="none">
  <path d="M12 0c1.285 0 9.75 4.886 10.392 6 .645 1.115.645 10.885 0 12S13.287 24 12 24C10.715 24 2.25 19.114 1.608 18 .963 16.885.963 7.115 1.608 6 2.252 4.886 10.715 0 12 0zm2.295 6.799c-.141 0-.258.115-.258.258v3.875H9.963V7.057a.258.258 0 0 0-.258-.258h-1.8a.258.258 0 0 0-.258.258v9.886c0 .141.115.258.258.258h1.8a.258.258 0 0 0 .258-.258V12.68h4.074v4.263c0 .141.115.258.258.258h1.8a.258.258 0 0 0 .258-.258V7.057a.258.258 0 0 0-.258-.258h-1.8z" fill="#2EC866"/>
</svg>
